<svg xmlns="http://www.w3.org/2000/svg" viewBox="0 0 331.31 177.71"><defs><style>.cls-1{fill:none;stroke:#fff;stroke-miterlimit:10;stroke-width:4px;}</style></defs><g id="Capa_2" data-name="Capa 2"><g id="Capa_1-2" data-name="Capa 1"><line class="cls-1" x1="37.31" y1="175.71" x2="300.62" y2="172"/><path class="cls-1" d="M131.52,175.27v-70c0-11.06,4.1-20,9.16-20H190c5.06,0,9.16,9,9.16,20v70"/><line class="cls-1" x1="91.47" y1="32.72" x2="91.47" y2="173.85"/><line class="cls-1" y1="32.72" x2="330.31" y2="32.72"/><line class="cls-1" x1="244.23" y1="32.72" x2="244.23" y2="173.85"/><path class="cls-1" d="M145.82,130.25V105.57c0-3.89,2.37-7,5.29-7h28.46c2.92,0,5.29,3.16,5.29,7v24.68"/><path class="cls-1" d="M2,33.72V9.05C2,5.16,21.86,2,46.35,2H285c24.5,0,44.35,3.16,44.35,7.05V33.72"/><line class="cls-1" x1="143.82" y1="130.25" x2="186.47" y2="130.25"/><line class="cls-1" x1="258.26" y1="32.72" x2="258.26" y2="173.85"/><line class="cls-1" x1="76.14" y1="32.72" x2="76.14" y2="173.85"/></g></g></svg>