<svg xmlns="http://www.w3.org/2000/svg" xmlns:xlink="http://www.w3.org/1999/xlink" viewBox="0 0 276.97 201.77"><defs><style>.cls-1,.cls-2,.cls-3,.cls-4,.cls-6{fill:none;stroke-miterlimit:10;}.cls-1,.cls-2,.cls-3,.cls-4{stroke:#1d1d1b;stroke-width:4px;}.cls-1{filter:url(#luminosity-noclip);}.cls-2{filter:url(#luminosity-noclip-2);}.cls-3{filter:url(#luminosity-noclip-3);}.cls-4{filter:url(#luminosity-noclip-4);}.cls-5{mask:url(#mask);}.cls-6{stroke:#fff;stroke-width:3px;}.cls-7{mask:url(#mask-2);}.cls-8{mask:url(#mask-3);}.cls-9{mask:url(#mask-4);}</style><filter id="luminosity-noclip" x="1.17" y="0" width="277.97" height="169.38" filterUnits="userSpaceOnUse" color-interpolation-filters="sRGB"><feFlood flood-color="#fff" result="bg"/><feBlend in="SourceGraphic" in2="bg"/></filter><mask id="mask" x="1.17" y="0" width="277.97" height="169.38" maskUnits="userSpaceOnUse"><rect class="cls-1" x="3.17" y="20.8" width="273.97" height="146.58" rx="44.61"/></mask><filter id="luminosity-noclip-2" x="0.85" y="17.8" width="277.97" height="183.97" filterUnits="userSpaceOnUse" color-interpolation-filters="sRGB"><feFlood flood-color="#fff" result="bg"/><feBlend in="SourceGraphic" in2="bg"/></filter><mask id="mask-2" x="0.85" y="17.8" width="277.97" height="183.97" maskUnits="userSpaceOnUse"><rect class="cls-2" x="2.85" y="19.8" width="273.97" height="146.58" rx="44.61"/></mask><filter id="luminosity-noclip-3" x="5.17" y="17.3" width="277.97" height="153.63" filterUnits="userSpaceOnUse" color-interpolation-filters="sRGB"><feFlood flood-color="#fff" result="bg"/><feBlend in="SourceGraphic" in2="bg"/></filter><mask id="mask-3" x="5.17" y="17.3" width="277.97" height="153.63" maskUnits="userSpaceOnUse"><rect class="cls-3" x="7.17" y="22.36" width="273.97" height="146.58" rx="44.61"/></mask><filter id="luminosity-noclip-4" x="0.33" y="19.96" width="277.97" height="153.67" filterUnits="userSpaceOnUse" color-interpolation-filters="sRGB"><feFlood flood-color="#fff" result="bg"/><feBlend in="SourceGraphic" in2="bg"/></filter><mask id="mask-4" x="0.33" y="19.96" width="277.97" height="153.67" maskUnits="userSpaceOnUse"><rect class="cls-4" x="2.33" y="25.06" width="273.97" height="146.58" rx="44.61"/></mask></defs><g id="Capa_2" data-name="Capa 2"><g id="Capa_1-2" data-name="Capa 1"><g class="cls-5"><path class="cls-6" d="M68.88,21.46C79.61,5.7,85,1.5,91.53,1.5H194.67c4.1,0,12.73,6.29,19.71,18.3"/></g><g class="cls-7"><path class="cls-6" d="M71.52,165.7,51.06,194.09a10,10,0,0,1-14,2.26h0a10,10,0,0,1-2.26-13.95l12-16.7"/><path class="cls-6" d="M234,165.7l17.51,17.52a10,10,0,0,1,0,14.13h0a10,10,0,0,1-14.12,0l-29.72-29.72"/><line class="cls-6" x1="254.21" y1="153.79" x2="253.3" y2="37.5"/></g><g class="cls-8"><path class="cls-6" d="M14,33.12a10,10,0,0,1,4.68-13.33h0A10,10,0,0,1,32,24.47"/></g><g class="cls-9"><path class="cls-6" d="M251.7,25.25a10,10,0,0,1,14-1.63h0a10,10,0,0,1,1.62,14"/></g><line class="cls-6" x1="36.6" y1="155.49" x2="35.69" y2="39.2"/><rect class="cls-6" x="1.5" y="21.32" width="273.97" height="146.58" rx="44.61"/></g></g></svg>