<svg xmlns="http://www.w3.org/2000/svg" xmlns:xlink="http://www.w3.org/1999/xlink" viewBox="0 0 277.97 202.77"><defs><style>.cls-1,.cls-2,.cls-3,.cls-4,.cls-6{fill:none;stroke-miterlimit:10;stroke-width:4px;}.cls-1,.cls-2,.cls-3,.cls-4{stroke:#1d1d1b;}.cls-1{filter:url(#luminosity-noclip);}.cls-2{filter:url(#luminosity-noclip-2);}.cls-3{filter:url(#luminosity-noclip-3);}.cls-4{filter:url(#luminosity-noclip-4);}.cls-5{mask:url(#mask);}.cls-6{stroke:#fff;}.cls-7{mask:url(#mask-2);}.cls-8{mask:url(#mask-3);}.cls-9{mask:url(#mask-4);}</style><filter id="luminosity-noclip" x="1.67" y="0" width="277.97" height="169.88" filterUnits="userSpaceOnUse" color-interpolation-filters="sRGB"><feFlood flood-color="#fff" result="bg"/><feBlend in="SourceGraphic" in2="bg"/></filter><mask id="mask" x="1.67" y="0" width="277.97" height="169.88" maskUnits="userSpaceOnUse"><rect class="cls-1" x="3.67" y="21.3" width="273.97" height="146.58" rx="44.61"/></mask><filter id="luminosity-noclip-2" x="1.35" y="18.3" width="277.97" height="184.47" filterUnits="userSpaceOnUse" color-interpolation-filters="sRGB"><feFlood flood-color="#fff" result="bg"/><feBlend in="SourceGraphic" in2="bg"/></filter><mask id="mask-2" x="1.35" y="18.3" width="277.97" height="184.47" maskUnits="userSpaceOnUse"><rect class="cls-2" x="3.35" y="20.3" width="273.97" height="146.58" rx="44.61"/></mask><filter id="luminosity-noclip-3" x="5.67" y="17.3" width="277.97" height="154.13" filterUnits="userSpaceOnUse" color-interpolation-filters="sRGB"><feFlood flood-color="#fff" result="bg"/><feBlend in="SourceGraphic" in2="bg"/></filter><mask id="mask-3" x="5.67" y="17.3" width="277.97" height="154.13" maskUnits="userSpaceOnUse"><rect class="cls-3" x="7.67" y="22.86" width="273.97" height="146.58" rx="44.61"/></mask><filter id="luminosity-noclip-4" x="0.83" y="19.96" width="277.97" height="154.17" filterUnits="userSpaceOnUse" color-interpolation-filters="sRGB"><feFlood flood-color="#fff" result="bg"/><feBlend in="SourceGraphic" in2="bg"/></filter><mask id="mask-4" x="0.83" y="19.96" width="277.97" height="154.17" maskUnits="userSpaceOnUse"><rect class="cls-4" x="2.83" y="25.56" width="273.97" height="146.58" rx="44.61"/></mask></defs><g id="Capa_2" data-name="Capa 2"><g id="Capa_1-2" data-name="Capa 1"><g class="cls-5"><path class="cls-6" d="M69.38,22C80.11,6.2,85.54,2,92,2H195.17c4.1,0,12.73,6.29,19.71,18.3"/></g><g class="cls-7"><path class="cls-6" d="M72,166.2,51.56,194.59a10,10,0,0,1-14,2.26h0a10,10,0,0,1-2.26-13.95l12-16.7"/><path class="cls-6" d="M234.5,166.2,252,183.72a10,10,0,0,1,0,14.13h0a10,10,0,0,1-14.12,0l-29.72-29.72"/><line class="cls-6" x1="254.71" y1="154.29" x2="253.8" y2="38"/></g><g class="cls-8"><path class="cls-6" d="M14.46,33.62a10,10,0,0,1,4.68-13.33h0A10,10,0,0,1,32.47,25"/></g><g class="cls-9"><path class="cls-6" d="M252.2,25.75a10,10,0,0,1,14-1.63h0a10,10,0,0,1,1.62,14"/></g><line class="cls-6" x1="37.1" y1="155.99" x2="36.19" y2="39.7"/><rect class="cls-6" x="2" y="21.82" width="273.97" height="146.58" rx="44.61"/></g></g></svg>