<svg xmlns="http://www.w3.org/2000/svg" viewBox="0 0 152.02 347.21"><defs><style>.cls-1{fill:none;stroke:#fff;stroke-miterlimit:10;stroke-width:4px;}</style></defs><g id="Capa_2" data-name="Capa 2"><g id="Capa_1-2" data-name="Capa 1"><line class="cls-1" x1="17.87" y1="307.39" x2="134.15" y2="305.69"/><rect class="cls-1" x="-60.98" y="119.34" width="273.97" height="146.58" rx="44.61" transform="matrix(0.01, 1, -1, 0.01, 268.04, 115.12)"/><line class="cls-1" x1="12.8" y1="89.82" x2="129.08" y2="88.12"/><path class="cls-1" d="M27.32,59.49V14.78A12.78,12.78,0,0,1,40.1,2h68.76a12.78,12.78,0,0,1,12.78,12.78V59.49"/><line class="cls-1" x1="63.88" y1="26.59" x2="63.88" y2="53.5"/><line class="cls-1" x1="50.73" y1="26.59" x2="98.23" y2="26.59"/><path class="cls-1" d="M124.79,325.11V342c0,1.77-4.11,3.21-9.17,3.21H39.72c-5.06,0-9.17-1.44-9.17-3.21V325.11"/><line class="cls-1" x1="85.85" y1="27.55" x2="85.85" y2="54.46"/></g></g></svg>