<svg xmlns="http://www.w3.org/2000/svg" viewBox="0 0 188.5 162"><defs><style>.cls-1{fill:#c1272d;}.cls-2{fill:#004998;}.cls-3{fill:#213567;}.cls-4{font-size:21.16px;}.cls-4,.cls-5{font-family:MyriadPro-Regular, Myriad Pro;}.cls-5{font-size:23.01px;}.cls-6{letter-spacing:0em;}</style></defs><g id="Capa_2" data-name="Capa 2"><g id="Capa_1-2" data-name="Capa 1"><path class="cls-1" d="M171.24,106a7,7,0,0,1-1.32,4,12.23,12.23,0,0,1-2.29,2.31,24.49,24.49,0,0,1-4.79,2.84,67.38,67.38,0,0,1-9.67,3.57,170.18,170.18,0,0,1-19.57,4.38A231.91,231.91,0,0,1,94,126a282.67,282.67,0,0,1-39.58-3,158.62,158.62,0,0,1-19.61-4.19,63.68,63.68,0,0,1-9.68-3.57,24.69,24.69,0,0,1-4.78-2.88A12.34,12.34,0,0,1,18.07,110a7,7,0,0,1-1.31-4,6.79,6.79,0,0,1,1.47-3.84A11.52,11.52,0,0,1,20.59,100a23.26,23.26,0,0,1,4.86-2.48,66.6,66.6,0,0,1,9.75-2.78A172.24,172.24,0,0,1,54.78,92c6.53-.64,13.07-1,19.61-1.21S87.47,90.43,94,90.5c13.07.15,26.12.51,39.21,1.56a162.21,162.21,0,0,1,19.61,2.65,60,60,0,0,1,9.76,2.78,23.13,23.13,0,0,1,4.85,2.51,11.65,11.65,0,0,1,2.36,2.15A6.81,6.81,0,0,1,171.24,106Zm-5.48,0a1.39,1.39,0,0,0-.23-.66c-.17-.19-.28-.39-.49-.59a8.58,8.58,0,0,0-.69-.62,18.29,18.29,0,0,0-3.7-2.21,60.89,60.89,0,0,0-8.83-3.28,160.27,160.27,0,0,0-18.9-4.25A226.2,226.2,0,0,0,94,91.5a276.49,276.49,0,0,0-38.91,3,153,153,0,0,0-18.93,4.06,58.08,58.08,0,0,0-8.84,3.28,18.76,18.76,0,0,0-3.69,2.25,7,7,0,0,0-.68.63,5,5,0,0,0-.49.6,1.26,1.26,0,0,0-.22.67c.06.07.13.25.37.56.19.15.31.32.54.5s.42.35.71.52a19.55,19.55,0,0,0,3.78,1.84,61.88,61.88,0,0,0,8.9,2.49,168.77,168.77,0,0,0,18.91,2.7c6.38.63,12.81,1,19.24,1.18s12.87.3,19.31.23c12.87-.15,25.75-.51,38.53-1.52A158,158,0,0,0,151.47,112a57.06,57.06,0,0,0,8.92-2.49,18.94,18.94,0,0,0,3.77-1.88c.29-.17.46-.36.71-.53s.35-.35.53-.51A4.91,4.91,0,0,0,165.76,106Z"/><polygon class="cls-2" points="58.5 52 89.5 52 89.5 1 74 26.96 58.5 52"/><polygon class="cls-2" points="130.5 52 97.5 52 97.5 1 114 26.96 130.5 52"/><polygon class="cls-2" points="130.5 60 97.5 60 97.5 111 114 85.04 130.5 60"/><polygon class="cls-2" points="58.5 60 89.5 60 89.5 111 74 85.04 58.5 60"/><polygon class="cls-3" points="94 99.5 69 56.5 94 14.5 118 56.5 94 99.5"/><text class="cls-4" transform="translate(123.74 17.71) scale(1.03 1)">R</text><text class="cls-5" transform="translate(0 156.25) scale(0.92 1)">FIG<tspan class="cls-6" x="31.57" y="0">R</tspan><tspan x="44.06" y="0">A GAS S.A DE C.V</tspan></text></g></g></svg>