<svg xmlns="http://www.w3.org/2000/svg" viewBox="0 0 2059.24 699.03"><defs><style>.cls-1{fill:#fff;}.cls-2{fill:#c1272d;}.cls-3{fill:#004998;}.cls-4{fill:#213567;}</style></defs><g id="Capa_2" data-name="Capa 2"><g id="Capa_1-2" data-name="Capa 1"><ellipse class="cls-1" cx="383.7" cy="349.52" rx="383.7" ry="349.52"/><path class="cls-2" d="M695.49,469.14a26.49,26.49,0,0,1-2.58,11.24,39.83,39.83,0,0,1-6.24,9.28c-4.84,5.55-10.65,9.89-16.6,13.8a159.23,159.23,0,0,1-18.62,10.22c-6.38,3-12.88,5.72-19.46,8.19-26.32,9.79-53.51,16.67-80.89,22.13q-20.57,4.05-41.29,7.06c-13.81,2-27.67,3.62-41.56,5s-27.8,2.57-41.73,3.22q-10.45.48-20.92.49c-7,.08-14-.06-20.92-.16-55.74-1.27-111.45-5.93-166.3-16.29-27.39-5.26-54.64-11.74-81-21.36-6.6-2.42-13.12-5.06-19.53-8A160.65,160.65,0,0,1,99,503.89a78.39,78.39,0,0,1-16.82-13.8,39.72,39.72,0,0,1-6.34-9.44,27,27,0,0,1-2.56-11.51,26.72,26.72,0,0,1,2.9-11.34,38.59,38.59,0,0,1,6.56-9.09,78,78,0,0,1,17.06-13,156.49,156.49,0,0,1,18.89-9.27c6.44-2.69,13-5.08,19.6-7.25,26.46-8.56,53.65-14.25,81-18.6s54.88-7.26,82.48-9.09q20.7-1.36,41.43-1.94c13.82-.36,27.64-.54,41.46-.62,27.65-.14,55.31.6,82.91,2.43s55.15,4.7,82.5,9c13.67,2.16,27.31,4.66,40.83,7.71a416.11,416.11,0,0,1,40.16,11c6.61,2.19,13.14,4.61,19.57,7.36a156.31,156.31,0,0,1,18.8,9.41A76.73,76.73,0,0,1,686.33,449a37.86,37.86,0,0,1,6.41,9.05A26.32,26.32,0,0,1,695.49,469.14Zm-5.48,0a20.94,20.94,0,0,0-2.06-8.83,33.35,33.35,0,0,0-5.42-7.88A72.49,72.49,0,0,0,666.94,440a154.24,154.24,0,0,0-18.1-9.4c-6.24-2.78-12.64-5.26-19.12-7.52-13-4.53-26.22-8.24-39.61-11.47s-26.91-5.92-40.5-8.28c-27.19-4.63-54.64-7.81-82.16-10s-55.14-3.22-82.77-3.4q-20.71-.07-41.42.81t-41.35,2.46c-27.53,2.16-55,5.32-82.18,9.91q-20.4,3.45-40.52,8.26-10.05,2.42-20,5.25c-6.6,1.92-13.16,4-19.63,6.3s-12.86,4.8-19.07,7.64a153.12,153.12,0,0,0-18,9.53A71.36,71.36,0,0,0,87.1,452.67a32.4,32.4,0,0,0-5.27,7.84,18.67,18.67,0,0,0,.33,17.11,31.94,31.94,0,0,0,5.5,7.49,71,71,0,0,0,15.65,11.74,152.22,152.22,0,0,0,18.13,8.76c6.26,2.55,12.67,4.8,19.15,6.84,13,4.08,26.25,7.35,39.62,10.13s26.89,5,40.45,6.93c27.12,3.79,54.47,6,81.83,7.44s54.8,1.68,82.19,1.1c13.7-.27,27.38-.78,41.06-1.11l20.52-.46c6.85-.19,13.69-.4,20.53-.71q20.52-.9,41-2.63t40.83-4.29c13.56-1.8,27.09-3.88,40.49-6.53a399.51,399.51,0,0,0,39.72-9.76c6.51-2,12.94-4.19,19.23-6.7a150.14,150.14,0,0,0,18.28-8.58,70.69,70.69,0,0,0,15.87-11.74,32.3,32.3,0,0,0,5.59-7.64A20.93,20.93,0,0,0,690,469.14Z"/><polygon class="cls-3" points="239.39 272.16 367.58 272.16 367.58 61.27 303.49 168.63 239.39 272.16"/><polygon class="cls-3" points="537.12 272.16 400.66 272.16 400.66 61.27 468.89 168.63 537.12 272.16"/><polygon class="cls-3" points="537.12 305.24 400.66 305.24 400.66 516.13 468.89 408.77 537.12 305.24"/><polygon class="cls-3" points="239.39 305.24 367.58 305.24 367.58 516.13 303.49 408.77 239.39 305.24"/><polygon class="cls-4" points="386.19 468.58 282.81 290.77 386.19 117.09 485.43 290.77 386.19 468.58"/><path class="cls-1" d="M950.4,253.8h99.7l-3.58,21.08h-77.7l-11.23,66h65.89L1019.9,362H954l-14.89,87.56h-22Z"/><path class="cls-1" d="M1080.88,261.63H1102l-32,187.89h-21.12Z"/><path class="cls-1" d="M1124.27,355.74c10.3-60.6,48.76-97.54,92.76-97.54,23,0,36.13,11.81,43.91,23.17l-14.21,15.57c-6.74-9.83-16-17.72-32.72-17.72-33.44,0-59.87,29.08-67.82,75.89-8,47.23,6.66,76.83,42.07,76.83,11.9,0,24-4,31.78-11l8.31-48.92h-35.14l3.37-19.81H1251l-13.43,79C1224.74,443.74,1205,453,1182.69,453,1138.9,453,1113.89,416.76,1124.27,355.74Z"/><path class="cls-1" d="M1308.45,261.63h52c33.8,0,55.74,13.74,49.08,52.88-6.38,37.53-33.72,55.6-67.52,55.6h-30.86l-13.51,79.41H1276.5Zm33.8,89.08c25.82,0,42-11.84,46.2-36.2,4.2-24.71-8.53-33.49-34.35-33.49h-27.83l-11.84,69.69Zm-3.31,12.85,18.65-12.38,33.91,98.34h-23.94Z"/><path class="cls-1" d="M1488,261.63h23.83L1536,449.52h-22.37l-11.1-104.94c-2.39-21-4.21-41.63-5.84-63.31h-1c-8.85,21.79-17.66,42.31-27.2,63.31l-47.1,104.94h-21.49Zm-45.6,111.58h76.42l-3.25,19.08h-76.42Z"/><path class="cls-1" d="M1635.88,351.83c10.74-63.12,50.8-101.61,96.63-101.61,24,0,37.64,12.31,45.75,24.14l-14.81,16.22c-7-10.23-16.72-18.46-34.08-18.46-34.83,0-62.36,30.3-70.65,79.06-8.37,49.19,6.94,80,43.82,80,12.4,0,25-4.21,33.1-11.5l8.67-51H1707.7l3.51-20.64h56.67l-14,82.27c-13.35,13.12-33.92,22.72-57.15,22.72C1651.13,453.1,1625.07,415.4,1635.88,351.83Z"/><path class="cls-1" d="M1859.59,261.63h23.83l24.2,187.89h-22.37l-11.1-104.94c-2.39-21-4.21-41.63-5.85-63.31h-1c-8.84,21.79-17.66,42.31-27.19,63.31L1793,449.52h-21.5ZM1814,373.21h76.41l-3.24,19.08h-76.42Z"/><path class="cls-1" d="M1925.73,425.07l15.43-16.41c9.56,14,24.57,23.28,41.82,23.28,21.78,0,36.79-12.29,39.89-30.54,3.26-19.19-7.72-25.31-22.07-33L1979,356.44c-14.19-7.47-30.08-20.74-25.38-48.38,4.88-28.7,30.57-49.86,60.73-49.86a53.64,53.64,0,0,1,44.9,23.27l-13.81,15.36c-8.32-10.86-19.33-17.61-34.67-17.61-18.61,0-32.74,10.62-35.6,27.43-3.08,18.1,10.24,24.87,22.18,31.09L2019,349.33c17.61,9.34,30.4,22.3,25.65,50.23-5,29.69-30.75,53.4-65.64,53.4C1955.75,453,1937.32,442.2,1925.73,425.07Z"/></g></g></svg>