<svg xmlns="http://www.w3.org/2000/svg" viewBox="0 0 550 501"><defs><style>.cls-1{fill:#fff;}.cls-2{fill:#c1272d;}.cls-3{fill:#004998;}.cls-4{fill:#213567;}</style></defs><g id="Capa_2" data-name="Capa 2"><g id="Capa_1-2" data-name="Capa 1"><ellipse class="cls-1" cx="275" cy="250.5" rx="275" ry="250.5"/><path class="cls-2" d="M505.74,333.59a20.41,20.41,0,0,1-2,8.66,30.44,30.44,0,0,1-4.72,7.11,60.11,60.11,0,0,1-12.44,10.53,121.32,121.32,0,0,1-13.89,7.82c-4.76,2.31-9.6,4.38-14.5,6.28-19.61,7.52-39.84,12.9-60.24,17.2q-15.3,3.19-30.75,5.61c-10.3,1.6-20.63,2.89-31,4s-20.72,2.13-31.12,2.66-20.81.38-31.21.14c-41.57-1.24-83.08-5-124-13.1-20.4-4.1-40.7-9.08-60.38-16.44-4.92-1.84-9.79-3.86-14.57-6.13a120.42,120.42,0,0,1-14-7.64A59.54,59.54,0,0,1,48.33,349.8a30.31,30.31,0,0,1-4.81-7.27,19.63,19.63,0,0,1,.33-17.73,30,30,0,0,1,5-6.92,58.82,58.82,0,0,1,12.91-9.71A118.12,118.12,0,0,1,76,301.31c4.82-2,9.71-3.74,14.64-5.34,19.75-6.29,40-10.49,60.32-13.68s40.84-5.33,61.37-6.65q15.39-1,30.82-1.37t30.83-.44c20.56-.15,41.14.36,61.67,1.68s41,3.41,61.39,6.59,40.62,7.3,60.33,13.75c4.93,1.62,9.81,3.41,14.61,5.45a118.79,118.79,0,0,1,14.07,7,58.12,58.12,0,0,1,12.72,9.83,29.3,29.3,0,0,1,4.89,6.88A20.22,20.22,0,0,1,505.74,333.59Zm-5.48,0a15,15,0,0,0-1.44-6.28,24.21,24.21,0,0,0-3.91-5.7,52.56,52.56,0,0,0-11.43-9.17,112.84,112.84,0,0,0-13.36-7c-4.62-2.07-9.36-3.92-14.16-5.61-19.24-6.73-39.29-11.26-59.45-14.83s-40.6-5.88-61.05-7.53-41-2.48-61.53-2.65c-10.26-.05-20.53.13-30.79.63s-20.51,1.07-30.74,1.89c-20.46,1.65-40.86,4-61.07,7.47q-15.15,2.6-30.09,6.21-7.45,1.82-14.82,3.94t-14.55,4.74c-4.8,1.72-9.53,3.6-14.12,5.73a111.92,111.92,0,0,0-13.29,7.12,51.84,51.84,0,0,0-11.24,9.28,23.57,23.57,0,0,0-3.76,5.67,13,13,0,0,0,.34,12,22.61,22.61,0,0,0,4,5.32,51.84,51.84,0,0,0,11.48,8.46c8.54,4.83,18,8.34,27.6,11.28s19.46,5.28,29.39,7.26,19.95,3.56,30,4.88c20.13,2.64,40.43,4.12,60.73,5s40.64.94,60.94.36c10.16-.27,20.29-.73,30.43-.93l15.22-.23c5.07-.09,10.14-.2,15.22-.38,10.14-.34,20.27-.91,30.39-1.65s20.24-1.63,30.31-2.83,20.11-2.64,30.06-4.49a291.45,291.45,0,0,0,29.49-6.88c4.83-1.41,9.6-3,14.27-4.78a112.84,112.84,0,0,0,13.55-6.17,51.67,51.67,0,0,0,11.7-8.47,23.12,23.12,0,0,0,4.08-5.48A14.86,14.86,0,0,0,500.26,333.59Z"/><polygon class="cls-3" points="165.9 187.12 261.22 187.12 261.22 30.31 213.56 110.14 165.9 187.12"/><polygon class="cls-3" points="387.28 187.12 285.82 187.12 285.82 30.31 336.55 110.14 387.28 187.12"/><polygon class="cls-3" points="387.28 211.71 285.82 211.71 285.82 368.52 336.55 288.69 387.28 211.71"/><polygon class="cls-3" points="165.9 211.71 261.22 211.71 261.22 368.52 213.56 288.69 165.9 211.71"/><polygon class="cls-4" points="275.06 333.17 198.19 200.95 275.06 71.81 348.85 200.95 275.06 333.17"/></g></g></svg>