<svg xmlns="http://www.w3.org/2000/svg" viewBox="0 0 376.91 125.99"><defs><style>.cls-1{fill:#c1272d;}.cls-2{fill:#004998;}.cls-3{fill:#213567;}.cls-4{font-size:21.16px;}.cls-12,.cls-4,.cls-5{fill:#fff;font-family:MyriadPro-Regular, Myriad Pro;}.cls-5{font-size:50.77px;letter-spacing:0.01em;}.cls-11,.cls-6,.cls-7,.cls-8{font-size:48.74px;}.cls-6{letter-spacing:0.01em;}.cls-7{letter-spacing:0.01em;}.cls-8{letter-spacing:0.01em;}.cls-9{font-size:60.93px;letter-spacing:0.01em;}.cls-10{letter-spacing:0.01em;}.cls-11{letter-spacing:0.01em;}.cls-12{font-size:12.16px;}.cls-13,.cls-14,.cls-15,.cls-16,.cls-17,.cls-18{font-size:8.21px;}.cls-14{letter-spacing:0em;}.cls-15{letter-spacing:0em;}.cls-16{letter-spacing:-0.01em;}.cls-17{letter-spacing:-0.03em;}.cls-18{letter-spacing:-0.1em;}</style></defs><g id="Capa_2" data-name="Capa 2"><g id="Capa_1-2" data-name="Capa 1"><path class="cls-1" d="M154.48,106a7,7,0,0,1-1.32,4,12.23,12.23,0,0,1-2.29,2.31,24.49,24.49,0,0,1-4.79,2.84,67.38,67.38,0,0,1-9.67,3.57,170.18,170.18,0,0,1-19.57,4.38A231.91,231.91,0,0,1,77.24,126a282.67,282.67,0,0,1-39.58-3,158.62,158.62,0,0,1-19.61-4.19,63.68,63.68,0,0,1-9.68-3.57,24.69,24.69,0,0,1-4.78-2.88A12.34,12.34,0,0,1,1.31,110,7,7,0,0,1,0,106a6.79,6.79,0,0,1,1.47-3.84A11.52,11.52,0,0,1,3.83,100a23.26,23.26,0,0,1,4.86-2.48,66.6,66.6,0,0,1,9.75-2.78A172.24,172.24,0,0,1,38,92c6.53-.64,13.07-1,19.61-1.21s13.08-.31,19.61-.24c13.07.15,26.12.51,39.21,1.56a162.21,162.21,0,0,1,19.61,2.65,60,60,0,0,1,9.76,2.78,23.13,23.13,0,0,1,4.85,2.51,11.65,11.65,0,0,1,2.36,2.15A6.81,6.81,0,0,1,154.48,106ZM149,106a1.39,1.39,0,0,0-.23-.66c-.17-.19-.28-.39-.49-.59a8.58,8.58,0,0,0-.69-.62,18.29,18.29,0,0,0-3.7-2.21,60.89,60.89,0,0,0-8.83-3.28,160.27,160.27,0,0,0-18.9-4.25A226.2,226.2,0,0,0,77.24,91.5a276.49,276.49,0,0,0-38.91,3A153,153,0,0,0,19.4,98.57a58.08,58.08,0,0,0-8.84,3.28,18.76,18.76,0,0,0-3.69,2.25,7,7,0,0,0-.68.63,5,5,0,0,0-.49.6,1.26,1.26,0,0,0-.22.67c.06.07.13.25.37.56.19.15.31.32.54.5s.42.35.71.52a19.55,19.55,0,0,0,3.78,1.84,61.88,61.88,0,0,0,8.9,2.49,168.77,168.77,0,0,0,18.91,2.7c6.38.63,12.81,1,19.24,1.18s12.87.3,19.31.23c12.87-.15,25.75-.51,38.53-1.52A158,158,0,0,0,134.71,112a57.06,57.06,0,0,0,8.92-2.49,18.94,18.94,0,0,0,3.77-1.88c.29-.17.46-.36.71-.53s.35-.35.53-.51A4.91,4.91,0,0,0,149,106Z"/><polygon class="cls-2" points="41.74 52 72.74 52 72.74 1 57.24 26.96 41.74 52"/><polygon class="cls-2" points="113.74 52 80.74 52 80.74 1 97.24 26.96 113.74 52"/><polygon class="cls-2" points="113.74 60 80.74 60 80.74 111 97.24 85.04 113.74 60"/><polygon class="cls-2" points="41.74 60 72.74 60 72.74 111 57.24 85.04 41.74 60"/><polygon class="cls-3" points="77.24 99.5 52.24 56.5 77.24 14.5 101.24 56.5 77.24 99.5"/><text class="cls-4" transform="translate(106.98 17.71) scale(1.03 1)">R</text><text class="cls-5" transform="matrix(0.9, 0, -0.17, 0.98, 162.14, 66.25)">F<tspan class="cls-6" x="25.23" y="0">IG</tspan><tspan class="cls-7" x="69.34" y="0">R</tspan><tspan class="cls-8" x="96.3" y="0">A</tspan><tspan class="cls-9" x="126.61" y="0"> </tspan><tspan class="cls-10" x="140.14" y="0">G</tspan><tspan class="cls-11" x="173.44" y="0">AS</tspan></text><text class="cls-12" transform="matrix(1.13, 0, -0.16, 0.99, 181.96, 85.94)">L<tspan class="cls-13" x="5.74" y="0">A </tspan><tspan class="cls-14" x="12.51" y="0">C</tspan><tspan class="cls-15" x="17.3" y="0">ALI</tspan><tspan class="cls-16" x="28.16" y="0">D</tspan><tspan class="cls-13" x="33.51" y="0">AD DE H</tspan><tspan class="cls-17" x="62.35" y="0">O</tspan><tspan class="cls-18" x="67.77" y="0">Y</tspan><tspan class="cls-13" x="71.44" y="0">, LA </tspan><tspan class="cls-14" x="85.52" y="0">C</tspan><tspan class="cls-13" x="90.31" y="0">ALIDEZ DE SIEMPRE</tspan></text></g></g></svg>