<svg xmlns="http://www.w3.org/2000/svg" viewBox="0 0 647.79 518.81"><defs><style>.cls-1{fill:#c1272d;}.cls-2{fill:#004998;}.cls-3{fill:#213567;}</style></defs><g id="Capa_2" data-name="Capa 2"><g id="Capa_1-2" data-name="Capa 1"><path class="cls-1" d="M647.79,424.83a27.48,27.48,0,0,1-2.68,11.65,41.59,41.59,0,0,1-6.48,9.63c-5,5.77-11.09,10.27-17.29,14.33A165.24,165.24,0,0,1,602,471.06c-6.64,3.14-13.42,5.93-20.26,8.5-27.42,10.16-55.73,17.27-84.25,22.93q-21.4,4.18-43,7.29c-14.38,2.08-28.82,3.74-43.27,5.18s-28.95,2.64-43.46,3.31q-10.89.5-21.78.52c-7.26.07-14.52-.07-21.78-.16-58-1.27-116-6.08-173.17-16.8-14.27-2.72-28.48-5.77-42.58-9.39s-28.08-7.75-41.81-12.78c-6.86-2.51-13.66-5.25-20.33-8.34-3.34-1.52-6.64-3.18-9.91-4.88s-6.48-3.57-9.63-5.57A81.45,81.45,0,0,1,9.25,446.54a40.78,40.78,0,0,1-6.58-9.79A26.14,26.14,0,0,1,3,413.07a40.35,40.35,0,0,1,6.81-9.44c5.25-5.54,11.43-9.77,17.74-13.52a163.28,163.28,0,0,1,19.65-9.66c6.71-2.81,13.52-5.3,20.4-7.56C95.16,364,123.47,358,151.93,353.48s57.16-7.56,85.9-9.48,57.55-2.51,86.34-2.68,57.61.64,86.35,2.55,57.44,4.91,85.93,9.42c14.24,2.26,28.43,4.86,42.52,8a433.27,433.27,0,0,1,41.82,11.44c6.87,2.28,13.68,4.8,20.37,7.66a164,164,0,0,1,19.57,9.8,80.39,80.39,0,0,1,17.56,13.63,40.14,40.14,0,0,1,6.65,9.41A27.47,27.47,0,0,1,647.79,424.83Zm-5.48,0a22.09,22.09,0,0,0-2.16-9.25,34.84,34.84,0,0,0-5.67-8.23,75.44,75.44,0,0,0-16.27-13,159.51,159.51,0,0,0-18.86-9.79c-6.51-2.9-13.17-5.48-19.92-7.83-13.51-4.72-27.33-8.58-41.27-11.94s-28-6.16-42.19-8.61c-28.33-4.82-56.92-8.13-85.59-10.36s-57.43-3.35-86.21-3.53c-14.38,0-28.77.21-43.14.85s-28.74,1.43-43.07,2.54c-28.67,2.25-57.27,5.53-85.61,10.31-14.16,2.4-28.25,5.23-42.21,8.59a404.35,404.35,0,0,0-41.26,12c-6.75,2.38-13.4,5-19.88,7.95a159.33,159.33,0,0,0-18.79,9.92,74.2,74.2,0,0,0-16.08,13.09,34.19,34.19,0,0,0-5.52,8.19A19.54,19.54,0,0,0,9,433.72a33.09,33.09,0,0,0,5.74,7.84A73.84,73.84,0,0,0,31,453.83,155.39,155.39,0,0,0,49.92,463c6.51,2.67,13.19,5,20,7.15,13.52,4.26,27.34,7.69,41.28,10.6s28,5.27,42.13,7.26c28.26,4,56.75,6.36,85.26,7.84s57.1,1.8,85.63,1.22c14.27-.27,28.53-.79,42.78-1.14l21.39-.5c7.13-.2,14.26-.44,21.38-.77q21.38-1,42.7-2.78T495,487.33c14.13-1.89,28.22-4.08,42.18-6.86a416.51,416.51,0,0,0,41.38-10.23c6.78-2.08,13.48-4.38,20-7a159.29,159.29,0,0,0,19.05-9A74.42,74.42,0,0,0,634.14,442a34,34,0,0,0,5.84-8A21.92,21.92,0,0,0,642.31,424.83Z"/><polygon class="cls-2" points="172.84 219.66 306.36 219.66 306.36 0 239.6 111.83 172.84 219.66"/><polygon class="cls-2" points="482.95 219.66 340.82 219.66 340.82 0 411.88 111.83 482.95 219.66"/><polygon class="cls-2" points="482.95 254.11 340.82 254.11 340.82 473.77 411.88 361.95 482.95 254.11"/><polygon class="cls-2" points="172.84 254.11 306.36 254.11 306.36 473.77 239.6 361.95 172.84 254.11"/><polygon class="cls-3" points="325.74 424.24 218.07 239.04 325.74 58.15 429.11 239.04 325.74 424.24"/></g></g></svg>