<svg xmlns="http://www.w3.org/2000/svg" viewBox="0 0 1710.44 415.82"><defs><style>.cls-1{fill:#c1272d;}.cls-2{fill:#004998;}.cls-3{fill:#213567;}.cls-4{font-size:91.13px;}.cls-11,.cls-4,.cls-5{fill:#fff;font-family:MyriadPro-Regular, Myriad Pro;}.cls-5{font-size:265.76px;letter-spacing:0.01em;}.cls-10,.cls-6,.cls-7{font-size:255.13px;}.cls-6{letter-spacing:0.01em;}.cls-7{letter-spacing:0.01em;}.cls-8{font-size:318.91px;letter-spacing:0.01em;}.cls-9{letter-spacing:0.01em;}.cls-10{letter-spacing:0.01em;}.cls-11{font-size:78.23px;}.cls-12,.cls-13,.cls-14,.cls-15,.cls-16,.cls-17{font-size:52.81px;}.cls-12{letter-spacing:0em;}.cls-13{letter-spacing:0em;}.cls-15{letter-spacing:-0.01em;}.cls-16{letter-spacing:-0.03em;}.cls-17{letter-spacing:-0.09em;}</style></defs><g id="Capa_2" data-name="Capa 2"><g id="Capa_1-2" data-name="Capa 1"><path class="cls-1" d="M464.17,345.56a20.34,20.34,0,0,1-2,8.67,29.77,29.77,0,0,1-4.72,7.1,59.59,59.59,0,0,1-12.44,10.53,119,119,0,0,1-13.89,7.82c-4.75,2.31-9.6,4.38-14.49,6.28-19.61,7.52-39.84,12.9-60.24,17.2q-15.31,3.19-30.76,5.61c-10.29,1.6-20.63,2.89-31,4s-20.72,2.14-31.12,2.66-20.81.38-31.2.14c-41.57-1.24-83.09-5-123.95-13.1C88,398.41,67.72,393.42,48,386.07c-4.91-1.85-9.78-3.87-14.56-6.13a121.79,121.79,0,0,1-14-7.64A59.1,59.1,0,0,1,6.77,361.77,30.65,30.65,0,0,1,2,354.5,21.06,21.06,0,0,1,0,345.56a20.77,20.77,0,0,1,2.29-8.79,29.18,29.18,0,0,1,5-6.91,58.27,58.27,0,0,1,12.9-9.72,118.12,118.12,0,0,1,14.15-6.86c4.82-2,9.71-3.74,14.64-5.34,19.75-6.29,40-10.49,60.33-13.68s40.84-5.33,61.36-6.65q15.4-1,30.82-1.37t30.84-.44c20.56-.15,41.13.36,61.66,1.68s41,3.42,61.39,6.59,40.62,7.3,60.34,13.75c4.92,1.62,9.8,3.41,14.6,5.45a117.35,117.35,0,0,1,14.07,7,57.54,57.54,0,0,1,12.72,9.82A29,29,0,0,1,462,337,20.22,20.22,0,0,1,464.17,345.56Zm-5.48,0a14.72,14.72,0,0,0-1.44-6.27,23.77,23.77,0,0,0-3.91-5.71,52.74,52.74,0,0,0-11.42-9.17,113.76,113.76,0,0,0-13.37-7c-4.62-2.07-9.35-3.92-14.16-5.61-19.23-6.73-39.29-11.26-59.45-14.83s-40.59-5.88-61.05-7.53-41-2.47-61.52-2.65c-10.27-.05-20.54.14-30.8.63s-20.5,1.07-30.73,1.89c-20.46,1.65-40.86,4-61.07,7.47Q94.6,299.39,79.68,303c-5,1.22-9.92,2.52-14.83,3.94s-9.76,3-14.55,4.74-9.52,3.6-14.12,5.73a114.19,114.19,0,0,0-13.29,7.12,52.37,52.37,0,0,0-11.24,9.28,23.52,23.52,0,0,0-3.75,5.67,13,13,0,0,0,.33,12,22.88,22.88,0,0,0,4,5.32,52.49,52.49,0,0,0,11.49,8.47c8.53,4.82,18,8.33,27.59,11.27s19.47,5.28,29.39,7.26,19.95,3.56,30,4.88c20.13,2.64,40.42,4.12,60.72,5s40.65.94,61,.36c10.15-.27,20.29-.73,30.43-.93l15.21-.23c5.07-.09,10.15-.2,15.22-.38,10.14-.34,20.28-.91,30.4-1.64s20.23-1.64,30.3-2.84S374,385.37,384,383.52a291.45,291.45,0,0,0,29.49-6.88c4.82-1.41,9.6-3,14.26-4.78a111.44,111.44,0,0,0,13.55-6.17,51.45,51.45,0,0,0,11.7-8.47,23,23,0,0,0,4.08-5.47A14.75,14.75,0,0,0,458.69,345.56Z"/><polygon class="cls-2" points="124.34 199.09 219.65 199.09 219.65 42.28 172 122.11 124.34 199.09"/><polygon class="cls-2" points="345.72 199.09 244.25 199.09 244.25 42.28 294.98 122.11 345.72 199.09"/><polygon class="cls-2" points="345.72 223.69 244.25 223.69 244.25 380.5 294.98 300.67 345.72 223.69"/><polygon class="cls-2" points="124.34 223.69 219.65 223.69 219.65 380.5 172 300.67 124.34 223.69"/><polygon class="cls-3" points="233.49 345.14 156.62 212.92 233.49 83.79 307.28 212.92 233.49 345.14"/><text class="cls-4" transform="translate(397.84 114.25) scale(1.03 1)">R</text><text class="cls-5" transform="matrix(0.85, 0, -0.16, 0.99, 587.07, 263.32)">F<tspan class="cls-6" x="132.08" y="0">IG</tspan><tspan class="cls-7" x="362.98" y="0">R</tspan><tspan class="cls-6" x="504.06" y="0">A</tspan><tspan class="cls-8" x="662.75" y="0"> </tspan><tspan class="cls-9" x="733.55" y="0">G</tspan><tspan class="cls-10" x="907.88" y="0">AS</tspan></text><text class="cls-11" transform="matrix(1.13, 0, -0.16, 0.99, 552.82, 351.68)">L<tspan class="cls-12" x="36.92" y="0">A </tspan><tspan class="cls-13" x="80.43" y="0">C</tspan><tspan class="cls-14" x="111.27" y="0">ALI</tspan><tspan class="cls-15" x="181.13" y="0">D</tspan><tspan class="cls-14" x="215.56" y="0">AD DE H</tspan><tspan class="cls-16" x="401.01" y="0">O</tspan><tspan class="cls-17" x="435.91" y="0">Y</tspan><tspan class="cls-14" x="459.46" y="0">, LA </tspan><tspan class="cls-13" x="550.02" y="0">C</tspan><tspan class="cls-14" x="580.86" y="0">ALIDEZ DE SIEMPRE</tspan></text></g></g></svg>